<svg xmlns="http://www.w3.org/2000/svg" width="458.667" height="442.667" preserveAspectRatio="xMidYMid meet" version="1.0" viewBox="0 0 344 332"><metadata>Created by potrace 1.16, written by Peter Selinger 2001-2019</metadata><g fill="#FFF" stroke="none"><path d="M960 3037 c-77 -40 -568 -333 -587 -350 -27 -24 -29 -57 -6 -85 29 -32 601 -364 629 -364 32 -1 64 29 64 59 0 13 -20 68 -45 122 -25 54 -45 101 -45 105 0 8 389 8 1148 -1 l601 -6 12 -28 c13 -33 82 -99 130 -126 26 -14 56 -18 124 -18 78 0 97 4 140 27 167 88 218 284 115 440 -82 123 -256 167 -389 98 -43 -21 -107 -84 -127 -122 l-15 -28 -869 0 -869 0 14 33 c7 17 27 61 44 97 36 76 39 112 11 140 -23 23 -45 25 -80 7z" transform="translate(0.000000,332.000000) scale(0.100000,-0.100000)"/><path d="M910 2007 c-255 -146 -518 -303 -537 -320 -27 -25 -29 -57 -6 -85 10 -11 153 -99 317 -196 310 -182 317 -185 359 -148 26 23 21 51 -28 159 l-44 98 1124 3 1125 2 0 115 c0 63 -1 116 -2 117 -2 2 -508 5 -1125 8 l-1122 5 44 94 c50 103 55 141 25 171 -28 28 -46 25 -130 -23z" transform="translate(0.000000,332.000000) scale(0.100000,-0.100000)"/><path d="M960 1037 c-80 -42 -569 -333 -587 -350 -27 -25 -29 -58 -6 -85 29 -32 601 -365 629 -365 32 0 64 30 64 59 0 13 -18 62 -39 109 -22 46 -42 93 -45 102 -6 17 47 18 1119 15 l1125 -4 0 121 0 121 -1124 2 -1124 3 44 95 c49 106 54 140 24 170 -23 23 -45 25 -80 7z" transform="translate(0.000000,332.000000) scale(0.100000,-0.100000)"/></g></svg>